<svg width="1861" height="635" viewBox="0 0 1861 635" fill="none" xmlns="http://www.w3.org/2000/svg">
<path d="M1773.42 0H87.5765C39.2093 0 0 39.2137 0 87.5862V547.414C0 595.786 39.2093 635 87.5765 635H1773.42C1821.79 635 1861 595.786 1861 547.414V87.5862C1861 39.2137 1821.79 0 1773.42 0Z" fill="white"/>
<path d="M911.091 514.569H883.964V338.674H910.237V361.414H910.741C914.666 353.697 920.709 347.258 928.162 342.853C935.615 338.448 944.169 336.257 952.821 336.539C986.626 336.539 1008.48 363.319 1008.48 404.758C1008.48 446.197 986.823 473.097 953.325 473.097C944.839 473.394 936.441 471.302 929.087 467.059C921.732 462.816 915.717 456.593 911.726 449.098H911.091V514.569V514.569ZM945.64 359.41C924.906 359.41 910.971 377.639 910.971 404.769C910.971 432.326 924.578 450.127 945.64 450.127C967.173 450.127 980.561 432.753 980.561 404.769C980.561 376.785 967.184 359.41 945.651 359.41H945.64ZM759.627 514.569H732.49V338.674H758.763V361.414H759.266C763.192 353.7 769.235 347.266 776.685 342.862C784.136 338.459 792.686 336.269 801.336 336.55C835.14 336.55 856.991 363.329 856.991 404.769C856.991 446.208 835.337 473.108 801.839 473.108C793.354 473.405 784.956 471.313 777.601 467.07C770.247 462.827 764.231 456.604 760.24 449.109H759.627V514.569ZM794.176 359.41C773.443 359.41 759.507 377.639 759.507 404.769C759.507 432.326 773.114 450.127 794.176 450.127C815.709 450.127 829.097 432.753 829.097 404.769C829.097 376.785 815.709 359.41 794.176 359.41ZM253.983 478.232C231.158 478.232 213.479 452.897 200.561 434.439C183.759 409.151 172.355 380.668 167.063 350.772C160.348 319.891 164.509 287.639 178.842 259.474C185.953 246.697 196.254 235.981 208.74 228.373C221.226 220.765 235.472 216.524 250.086 216.064H251.071C263.077 216.8 274.83 219.829 285.696 224.987H285.806H285.872H285.937C292.717 228.34 300.037 230.464 307.558 231.26C314.69 230.394 321.629 228.352 328.094 225.217H328.204H328.302H328.357C340.927 219.386 354.474 215.948 368.303 215.079C369.901 215.079 371.773 215.177 373.864 215.364C386.399 215.768 398.668 219.085 409.699 225.052C420.731 231.019 430.222 239.471 437.423 249.741C426.127 256.736 416.771 266.457 410.212 278.012C403.653 289.566 400.102 302.584 399.885 315.869C399.773 326.104 401.78 336.252 405.782 345.673C409.784 355.095 415.693 363.585 423.137 370.61C429.877 377.108 437.76 382.304 446.388 385.938V386.025C440.882 403.552 432.727 420.134 422.206 435.194C406.88 458.251 392.233 477.367 369.321 477.706H368.029C359.176 477.525 350.475 475.363 342.566 471.378H342.501C333.035 466.75 322.658 464.289 312.123 464.174C301.122 464.221 290.273 466.739 280.376 471.542H280.321H280.212H280.157C272.338 475.382 263.837 477.641 255.143 478.188H253.983V478.232ZM1158.02 473.852C1140.55 474.559 1123.34 469.474 1109.06 459.39C1103.02 454.778 1098.08 448.881 1094.59 442.125C1091.11 435.368 1089.18 427.923 1088.93 420.326H1116.69C1118.68 438.139 1136.09 450.106 1160.03 450.106C1182.81 450.106 1199.34 438.325 1199.34 422.089C1199.34 408.031 1189.34 399.568 1165.93 393.82L1142.44 388.16C1109.18 380.135 1093.69 364.599 1093.69 339.287C1093.69 308.216 1120.81 286.527 1159.64 286.527C1197.9 286.527 1224.23 307.734 1225.09 339.287H1197.72C1196.1 321.387 1181.36 310.274 1159.27 310.274C1137.6 310.274 1122.47 321.43 1122.47 337.415C1122.47 350.192 1132 357.757 1155.39 363.548L1175.35 368.442C1190.15 370.995 1204.02 377.365 1215.61 386.923C1219.79 391.042 1223.06 396.001 1225.19 401.473C1227.32 406.946 1228.27 412.807 1227.98 418.673C1227.98 452.733 1201.17 473.863 1158.01 473.863L1158.02 473.852ZM1635.13 473.349C1596.69 473.349 1572.82 447.303 1572.82 405.382C1572.05 387.216 1577.95 369.395 1589.41 355.283C1595.01 349.053 1601.9 344.124 1609.6 340.84C1617.31 337.557 1625.63 335.999 1634 336.276C1642.12 335.965 1650.21 337.408 1657.72 340.506C1665.23 343.605 1671.99 348.286 1677.53 354.231C1688.63 367.697 1694.34 384.805 1693.54 402.24V411.546H1600.2V413.177C1599.68 418.094 1600.23 423.063 1601.8 427.752C1603.36 432.44 1605.92 436.738 1609.29 440.356C1612.65 443.974 1616.76 446.829 1621.32 448.728C1625.88 450.627 1630.8 451.526 1635.74 451.365C1642.24 451.909 1648.75 450.314 1654.26 446.821C1659.77 443.329 1663.99 438.131 1666.27 432.019H1692.03C1691.05 437.947 1688.92 443.623 1685.74 448.722C1682.56 453.821 1678.41 458.242 1673.52 461.733C1662.29 469.608 1648.83 473.683 1635.12 473.36L1635.13 473.349ZM1634.03 358.14C1625.02 358.293 1616.44 361.992 1610.13 368.436C1603.83 374.879 1600.32 383.548 1600.37 392.561H1666.45C1666.72 388.136 1666.09 383.7 1664.58 379.531C1663.07 375.361 1660.72 371.545 1657.68 368.32C1654.64 365.095 1650.97 362.529 1646.89 360.782C1642.82 359.035 1638.42 358.143 1633.99 358.162L1634.03 358.14ZM1398.39 473.36C1389.94 473.683 1381.52 472.218 1373.67 469.059C1365.83 465.901 1358.74 461.121 1352.87 455.032C1340.98 441.055 1334.85 423.086 1335.71 404.758C1334.86 386.458 1341.01 368.523 1352.9 354.593C1365.13 342.857 1381.43 336.303 1398.38 336.303C1415.33 336.303 1431.62 342.857 1443.85 354.593C1455.75 368.519 1461.91 386.456 1461.06 404.758C1461.91 423.085 1455.78 441.054 1443.9 455.032C1438.03 461.118 1430.94 465.896 1423.1 469.054C1415.26 472.212 1406.84 473.679 1398.39 473.36V473.36ZM1398.39 358.666C1379.08 358.666 1363.36 379.391 1363.36 404.867C1363.36 430.344 1379.07 451.058 1398.39 451.058C1417.71 451.058 1433.42 430.333 1433.42 404.867C1433.42 379.402 1417.66 358.666 1398.38 358.666H1398.39ZM1301.2 471.728C1274.45 471.728 1263.98 461.722 1263.98 436.048V360.198H1244.78V338.674H1264V307.406H1291.26V338.685H1316.38V360.198H1291.26V433.059C1291.26 444.533 1296.22 449.646 1307.34 449.646C1310.33 449.663 1313.31 449.45 1316.26 449.011V470.502C1311.29 471.414 1306.24 471.825 1301.19 471.728H1301.2ZM577.6 470.863H548.36L613.813 289.56H644.213L709.665 470.842H679.889L663.304 421.837H594.217L577.633 470.842L577.6 470.863ZM628.372 319.69L601.366 399.218H656.101L629.139 319.69H628.372ZM1515.3 470.831H1488.17V338.674H1514.04V361.173H1514.68C1516.35 354.052 1520.41 347.72 1526.19 343.238C1531.97 338.756 1539.11 336.395 1546.43 336.55C1549.55 336.592 1552.66 336.929 1555.72 337.557V362.804C1551.77 361.667 1547.66 361.157 1543.55 361.293C1539.6 361.122 1535.67 361.81 1532.02 363.308C1528.37 364.806 1525.08 367.079 1522.4 369.969C1519.71 372.86 1517.68 376.3 1516.45 380.051C1515.22 383.802 1514.82 387.776 1515.28 391.696V470.842L1515.3 470.831ZM1540.95 239.22C1521.51 239.22 1509.42 225.753 1509.42 204.087C1509.03 194.752 1512.02 185.59 1517.84 178.282C1520.64 175.071 1524.12 172.522 1528.03 170.818C1531.93 169.114 1536.17 168.298 1540.43 168.428C1558.85 168.428 1570.3 181.566 1570.3 202.576V206.955H1521.21V207.612C1520.91 210.393 1521.2 213.206 1522.08 215.864C1522.95 218.521 1524.38 220.961 1526.28 223.018C1528.17 225.076 1530.49 226.704 1533.06 227.794C1535.64 228.883 1538.42 229.408 1541.21 229.334C1544.85 229.668 1548.49 228.782 1551.57 226.815C1554.64 224.848 1556.97 221.913 1558.19 218.473H1569.46C1567.98 224.771 1564.28 230.33 1559.05 234.138C1553.82 237.947 1547.4 239.754 1540.95 239.231V239.22ZM1540.22 178.347C1535.11 178.445 1530.24 180.565 1526.69 184.242C1523.14 187.92 1521.19 192.855 1521.27 197.967H1558.49C1558.68 195.46 1558.34 192.942 1557.51 190.57C1556.68 188.198 1555.37 186.024 1553.66 184.183C1551.95 182.342 1549.87 180.874 1547.57 179.872C1545.26 178.87 1542.78 178.354 1540.26 178.358L1540.22 178.347ZM1121.6 239.22C1104.09 239.22 1092.31 224.987 1092.31 203.813C1092.31 182.639 1103.98 168.406 1121.33 168.406C1125.74 168.266 1130.1 169.338 1133.94 171.506C1137.78 173.674 1140.95 176.855 1143.1 180.701H1143.37V143.083H1154.82V238.048H1143.87V226.465H1143.67C1141.51 230.406 1138.32 233.68 1134.43 235.931C1130.54 238.182 1126.11 239.323 1121.61 239.231L1121.6 239.22ZM1123.79 178.479C1111.75 178.479 1104.09 188.431 1104.09 203.824C1104.09 219.447 1111.65 229.158 1123.79 229.158C1135.57 229.158 1143.5 218.976 1143.5 203.824C1143.5 188.672 1135.55 178.457 1123.78 178.457L1123.79 178.479ZM1043.55 239.231C1040.67 239.54 1037.76 239.239 1035.01 238.347C1032.26 237.455 1029.72 235.992 1027.57 234.053C1025.42 232.115 1023.71 229.745 1022.54 227.098C1021.37 224.45 1020.77 221.586 1020.78 218.692C1020.78 206.901 1029.82 199.609 1045.59 198.678L1065.2 197.584V191.847C1065.2 183.482 1059.6 178.49 1050.2 178.49C1046.69 178.047 1043.14 178.909 1040.23 180.911C1037.32 182.914 1035.24 185.917 1034.4 189.35H1023.34C1024.16 182.979 1027.48 177.194 1032.57 173.269C1037.65 169.343 1044.09 167.598 1050.46 168.417C1066.36 168.417 1076.64 177.176 1076.64 190.73V238.048H1065.78V226.268H1065.52C1063.37 230.214 1060.2 233.504 1056.33 235.787C1052.46 238.07 1048.04 239.26 1043.55 239.231V239.231ZM1065.16 206.452L1046.87 207.546C1037.67 208.138 1032.4 212.189 1032.4 218.67C1032.4 225.151 1037.87 229.465 1046.08 229.465C1048.49 229.624 1050.9 229.294 1053.18 228.496C1055.46 227.698 1057.55 226.448 1059.33 224.821C1061.11 223.194 1062.55 221.224 1063.55 219.029C1064.55 216.834 1065.1 214.459 1065.16 212.046V206.452ZM1235.28 239.231C1226.41 238.7 1218.11 234.686 1212.18 228.062C1206.25 221.439 1203.19 212.743 1203.64 203.868C1203.14 199.416 1203.59 194.91 1204.95 190.643C1206.32 186.376 1208.56 182.444 1211.55 179.106C1214.54 175.767 1218.19 173.096 1222.28 171.267C1226.37 169.439 1230.8 168.493 1235.28 168.493C1239.76 168.493 1244.18 169.439 1248.27 171.267C1252.36 173.096 1256.02 175.767 1259 179.106C1261.99 182.444 1264.24 186.376 1265.6 190.643C1266.96 194.91 1267.41 199.416 1266.91 203.868C1267.37 212.743 1264.3 221.439 1258.37 228.062C1252.45 234.686 1244.15 238.7 1235.28 239.231ZM1235.28 178.577C1229.3 179.356 1223.87 182.431 1220.13 187.151C1216.39 191.871 1214.63 197.864 1215.23 203.857C1214.52 206.878 1214.5 210.021 1215.18 213.051C1215.85 216.08 1217.21 218.918 1219.13 221.351C1221.06 223.784 1223.51 225.75 1226.31 227.102C1229.1 228.453 1232.16 229.155 1235.27 229.155C1238.37 229.155 1241.43 228.453 1244.23 227.102C1247.02 225.75 1249.47 223.784 1251.4 221.351C1253.33 218.918 1254.68 216.08 1255.35 213.051C1256.03 210.021 1256.01 206.878 1255.3 203.857C1255.91 197.865 1254.16 191.871 1250.42 187.148C1246.68 182.426 1241.25 179.348 1235.28 178.566V178.577ZM975.952 239.209C967.082 238.678 958.781 234.664 952.855 228.041C946.93 221.417 943.861 212.722 944.315 203.846C943.818 199.394 944.265 194.888 945.628 190.621C946.991 186.354 949.239 182.422 952.225 179.084C955.211 175.745 958.868 173.074 962.956 171.245C967.045 169.417 971.473 168.471 975.952 168.471C980.431 168.471 984.86 169.417 988.948 171.245C993.037 173.074 996.694 175.745 999.68 179.084C1002.67 182.422 1004.91 186.354 1006.28 190.621C1007.64 194.888 1008.09 199.394 1007.59 203.846C1008.04 212.722 1004.97 221.417 999.049 228.041C993.124 234.664 984.823 238.678 975.952 239.209ZM975.952 178.555C969.981 179.334 964.548 182.41 960.807 187.13C957.067 191.85 955.313 197.843 955.919 203.835C955.204 206.857 955.182 210.003 955.856 213.035C956.529 216.067 957.879 218.907 959.806 221.343C961.732 223.779 964.185 225.747 966.981 227.1C969.776 228.453 972.841 229.156 975.947 229.156C979.052 229.156 982.118 228.453 984.913 227.1C987.708 225.747 990.161 223.779 992.088 221.343C994.014 218.907 995.365 216.067 996.038 213.035C996.711 210.003 996.689 206.857 995.974 203.835C996.581 197.844 994.829 191.853 991.09 187.134C987.352 182.414 981.922 179.337 975.952 178.555ZM691.548 239.198C682.678 238.67 674.377 234.658 668.451 228.036C662.526 221.415 659.456 212.72 659.911 203.846C659.413 199.394 659.86 194.888 661.223 190.621C662.586 186.354 664.834 182.422 667.82 179.084C670.806 175.745 674.463 173.074 678.552 171.245C682.64 169.417 687.069 168.471 691.548 168.471C696.027 168.471 700.455 169.417 704.544 171.245C708.632 173.074 712.289 175.745 715.275 179.084C718.261 182.422 720.509 186.354 721.872 190.621C723.235 194.888 723.682 199.394 723.185 203.846C723.639 212.72 720.57 221.415 714.644 228.036C708.718 234.658 700.417 238.67 691.548 239.198V239.198ZM691.548 178.555C685.576 179.334 680.143 182.41 676.403 187.13C672.662 191.85 670.909 197.843 671.515 203.835C670.908 209.828 672.661 215.822 676.402 220.544C680.142 225.266 685.575 228.344 691.548 229.126C697.518 228.342 702.949 225.262 706.687 220.541C710.425 215.819 712.176 209.827 711.57 203.835C712.179 197.844 710.43 191.852 706.694 187.13C702.958 182.408 697.528 179.328 691.559 178.544L691.548 178.555ZM1411.68 238.596C1399.13 238.596 1394.24 233.461 1394.24 220.301V179.026H1384.05V169.611H1394.24V153.101H1405.69V169.611H1418.98V179.026H1405.69V219.699C1405.69 225.972 1408.31 228.775 1414.18 228.775C1415.35 228.775 1418.01 228.578 1418.92 228.447V238.048C1416.53 238.449 1414.11 238.628 1411.68 238.585V238.596ZM1447.68 238.07H1436.27V143.094H1447.72V180.537H1447.98C1450.03 176.628 1453.18 173.402 1457.04 171.252C1460.89 169.102 1465.29 168.121 1469.7 168.428C1473.02 168.251 1476.34 168.797 1479.43 170.03C1482.53 171.262 1485.31 173.152 1487.6 175.567C1489.89 177.982 1491.63 180.866 1492.7 184.019C1493.76 187.172 1494.13 190.519 1493.78 193.828V238.048H1482.33V195.974C1482.67 193.715 1482.5 191.409 1481.82 189.226C1481.15 187.043 1479.99 185.041 1478.43 183.37C1476.88 181.698 1474.96 180.399 1472.83 179.572C1470.71 178.744 1468.42 178.407 1466.14 178.588C1463.59 178.49 1461.06 178.938 1458.7 179.903C1456.34 180.868 1454.21 182.327 1452.47 184.182C1450.72 186.036 1449.39 188.244 1448.57 190.656C1447.74 193.067 1447.44 195.628 1447.69 198.164V238.048L1447.68 238.07ZM1294.42 238.07H1282.97V169.611H1293.76V180.559H1294.01C1296.09 176.675 1299.24 173.47 1303.09 171.323C1306.94 169.177 1311.33 168.18 1315.73 168.45C1319.02 168.249 1322.32 168.775 1325.38 169.991C1328.45 171.207 1331.21 173.083 1333.47 175.486C1335.74 177.89 1337.44 180.761 1338.47 183.897C1339.49 187.033 1339.82 190.356 1339.42 193.631V238.048H1327.97V195.679C1327.97 184.478 1322.49 178.566 1312.25 178.566C1309.76 178.49 1307.29 178.946 1305 179.905C1302.71 180.863 1300.65 182.302 1298.96 184.123C1297.27 185.945 1295.99 188.107 1295.2 190.465C1294.42 192.823 1294.15 195.321 1294.41 197.792V238.048L1294.42 238.07ZM851.55 238.07H840.099V169.6H850.893V180.548H851.145C853.223 176.659 856.375 173.45 860.226 171.303C864.077 169.156 868.464 168.162 872.864 168.439C876.157 168.24 879.453 168.767 882.519 169.984C885.585 171.201 888.346 173.077 890.607 175.48C892.867 177.882 894.572 180.753 895.599 183.888C896.627 187.023 896.953 190.345 896.553 193.62V238.037H885.059V195.668C885.059 184.468 879.585 178.555 869.328 178.555C866.846 178.479 864.376 178.935 862.085 179.893C859.794 180.851 857.734 182.289 856.045 184.109C854.355 185.929 853.075 188.09 852.291 190.446C851.506 192.803 851.235 195.3 851.495 197.77V238.048L851.55 238.07ZM764.389 238.07H752.709L733.552 169.633H744.936L758.642 225.272H758.905L774.362 169.6H785.419L800.942 225.272H801.204L814.888 169.6H826.207L807.127 238.048H795.479L780.011 185.026H779.759L764.357 238.048L764.389 238.07ZM600.961 238.07H569.017V143.072H600.917C606.971 142.78 613.021 143.741 618.687 145.894C624.352 148.047 629.513 151.347 633.846 155.586C642.134 165.272 646.393 177.768 645.745 190.5C646.449 203.261 642.22 215.805 633.933 225.534C629.595 229.787 624.422 233.094 618.741 235.246C613.06 237.398 606.995 238.348 600.928 238.037L600.961 238.07ZM580.895 153.769V227.374H600.184C621.782 227.374 633.671 214.334 633.671 190.664C633.671 166.994 621.782 153.747 600.184 153.747L580.895 153.769ZM927.731 238.07H916.17V143.083H927.654V237.994L927.731 238.07ZM308.236 211.455C307.104 211.468 305.971 211.424 304.843 211.324C303.577 191.768 310.13 172.511 323.059 157.787C336.157 142.871 354.396 133.442 374.138 131.379C375.735 151.522 369.358 171.487 356.382 186.975C350.526 194.208 343.213 200.127 334.917 204.345C326.622 208.563 317.531 210.986 308.236 211.455V211.455Z" fill="#2296F3"/>
</svg>
